<svg width="32" height="32" viewBox="0 0 32 32" fill="none" xmlns="http://www.w3.org/2000/svg">
<path d="M18.9702 13.4559C18.0582 13.4559 17.3382 14.2399 17.3382 15.2159C17.3382 16.1919 18.0742 16.9759 18.9702 16.9759C19.8822 16.9759 20.6022 16.1919 20.6022 15.2159C20.6022 14.2399 19.8662 13.4559 18.9702 13.4559ZM13.1302 13.4559C12.2182 13.4559 11.4982 14.2399 11.4982 15.2159C11.4982 16.1919 12.2342 16.9759 13.1302 16.9759C14.0422 16.9759 14.7622 16.1919 14.7622 15.2159C14.7782 14.2399 14.0422 13.4559 13.1302 13.4559Z" fill="white"/>
<path d="M26.7462 0.143799H5.30624C3.49824 0.143799 2.02625 1.61579 2.02625 3.42379V24.8638C2.02625 26.6718 3.49824 28.1438 5.30624 28.1438H23.4502L22.6022 25.2158L24.6502 27.1038L26.5862 28.8798L30.0422 31.8718V3.42379C30.0262 1.61579 28.5542 0.143799 26.7462 0.143799ZM20.5702 20.8638C20.5702 20.8638 19.9942 20.1758 19.5142 19.5838C21.6102 18.9918 22.4102 17.6958 22.4102 17.6958C21.7542 18.1278 21.1302 18.4318 20.5702 18.6398C19.7702 18.9758 19.0022 19.1838 18.2502 19.3278C16.7142 19.6158 15.3062 19.5358 14.1062 19.3118C13.1942 19.1358 12.4102 18.8958 11.7542 18.6238C11.3862 18.4798 10.9862 18.3038 10.5862 18.0798C10.5382 18.0478 10.4902 18.0318 10.4422 17.9998C10.4102 17.9838 10.3942 17.9678 10.3782 17.9678C10.0902 17.8078 9.93024 17.6958 9.93024 17.6958C9.93024 17.6958 10.6982 18.9598 12.7302 19.5678C12.2502 20.1758 11.6582 20.8798 11.6582 20.8798C8.12224 20.7678 6.77824 18.4638 6.77824 18.4638C6.77824 13.3598 9.08224 9.21579 9.08224 9.21579C11.3862 7.50379 13.5622 7.55179 13.5622 7.55179L13.7222 7.74379C10.8422 8.55979 9.53024 9.82384 9.53024 9.82384C9.53024 9.82384 9.88224 9.63184 10.4742 9.37579C12.1862 8.62379 13.5462 8.43179 14.1062 8.36779C14.2022 8.35179 14.2822 8.33579 14.3782 8.33579C15.3542 8.20779 16.4582 8.17579 17.6102 8.30379C19.1302 8.47979 20.7622 8.92779 22.4262 9.82384C22.4262 9.82384 21.1622 8.62379 18.4422 7.80779L18.6662 7.55179C18.6662 7.55179 20.8582 7.50379 23.1462 9.21579C23.1462 9.21579 25.4502 13.3598 25.4502 18.4638C25.4502 18.4478 24.1062 20.7518 20.5702 20.8638Z" fill="white"/>
</svg>
