<svg width="32" height="32" viewBox="0 0 32 32" fill="none" xmlns="http://www.w3.org/2000/svg">
<g clip-path="url(#clip0_314_2339)">
<path fill-rule="evenodd" clip-rule="evenodd" d="M0 16C0 24.8352 7.1648 32 16 32C24.8352 32 32 24.8352 32 16C32 7.1648 24.8352 0 16 0C7.1648 0 0 7.1648 0 16ZM25.8755 17.2977C26.6246 16.6547 27.0793 15.8214 26.9885 14.6984C26.8994 13.5971 26.4185 12.7781 25.5476 12.3302C24.6047 11.8492 23.7027 11.9846 22.8939 12.7497C22.8015 12.8368 22.745 12.8406 22.6502 12.7686C21.1503 11.6238 19.4976 10.9827 17.7156 10.7735C17.603 10.7601 17.4904 10.7464 17.3724 10.7321C17.2814 10.7211 17.1873 10.7097 17.0876 10.6977C17.3248 9.84353 17.5581 9.00283 17.7907 8.16431C17.9382 7.63269 18.0854 7.10194 18.2333 6.5692C18.2644 6.57499 18.2935 6.57991 18.3211 6.58458C18.3747 6.59366 18.423 6.60182 18.4705 6.6137C18.7255 6.67717 18.9804 6.74122 19.2354 6.80529C19.8897 6.9697 20.5443 7.13418 21.2011 7.28885C21.3883 7.33335 21.4816 7.4091 21.5347 7.63826C21.785 8.72152 22.7164 9.41182 23.6569 9.23664C24.9498 8.99518 25.6514 7.38259 25.025 6.09101C24.5237 5.05888 22.9667 4.44149 21.9632 5.79273C21.8651 5.9253 21.7817 5.95655 21.6353 5.91962C20.7742 5.7009 19.9123 5.48871 19.0502 5.27647C18.7291 5.19743 18.408 5.11839 18.0869 5.03899C17.5954 4.91684 17.3656 5.07308 17.2143 5.62986C17.072 6.15286 16.9294 6.67574 16.7869 7.19863C16.502 8.24351 16.2171 9.28838 15.9337 10.3341C15.8969 10.4705 15.8658 10.5689 15.708 10.568C14.9098 10.5614 14.1231 10.692 13.3429 10.8833C11.9437 11.2261 10.6426 11.8378 9.45928 12.7724C9.35134 12.8576 9.2851 12.8235 9.18614 12.7705C9.0763 12.7117 8.96717 12.6489 8.85794 12.5861C8.56462 12.4174 8.27051 12.2483 7.95947 12.1531C6.48418 11.7005 4.73248 13.0887 5.03425 15.3698C5.15282 16.2665 5.61324 16.9151 6.24784 17.4075C6.35252 17.488 6.37541 17.5609 6.35661 17.6935C6.17915 18.9273 6.28955 20.1242 6.7197 21.2756C7.33141 22.9128 8.3839 24.0965 9.6621 25.0301C11.121 26.0963 12.7394 26.6361 14.4363 26.8832C15.9206 27.0982 17.3967 27.0167 18.8548 26.6361C20.9533 26.0878 22.8219 25.0453 24.2604 23.1354C25.4012 21.6203 25.9066 19.8591 25.6719 17.8497C25.64 17.5817 25.6956 17.452 25.8755 17.2977ZM20.8846 17.381C20.8878 18.2881 20.1845 19.0996 19.3937 19.1006C18.5711 19.1015 17.898 18.3004 17.8972 17.3176C17.8964 16.4189 18.5899 15.6311 19.3856 15.6283C20.205 15.6254 20.8813 16.4151 20.8846 17.381ZM19.7168 21.7055C19.8746 21.8864 19.9188 22.16 19.747 22.3901C19.5459 22.6572 19.3071 22.9072 19.0462 23.0908C18.3306 23.5889 17.5398 23.8417 16.7106 23.9298C16.542 23.948 16.3734 23.9609 16.238 23.9713C16.1829 23.9755 16.1334 23.9793 16.0915 23.9828C14.7577 23.9648 13.6046 23.6173 12.5791 22.7841C12.4597 22.6875 12.3461 22.5634 12.2618 22.4261C12.113 22.1818 12.1318 21.8835 12.2806 21.7103C12.5064 21.4461 12.8024 21.3902 13.0379 21.5493C13.1173 21.6027 13.1961 21.6578 13.2751 21.713C13.5111 21.878 13.7478 22.0434 13.9996 22.1648C15.6401 22.9545 17.2233 22.7888 18.7387 21.7226C18.7771 21.6953 18.8143 21.6659 18.8515 21.6364C18.8985 21.5993 18.9454 21.5621 18.9947 21.5294C19.2147 21.3836 19.4976 21.4536 19.7168 21.7055ZM14.1133 17.3772C14.1166 18.254 13.4043 19.0987 12.6609 19.1006C11.8178 19.1025 11.1169 18.3175 11.1145 17.3687C11.1128 16.4303 11.799 15.6292 12.6045 15.6292C13.4206 15.6283 14.11 16.4265 14.1133 17.3772Z" fill="white"/>
</g>
<defs>
<clipPath id="clip0_314_2339">
<rect width="32" height="32" fill="white"/>
</clipPath>
</defs>
</svg>
