<svg width="32" height="32" viewBox="0 0 32 32" fill="none" xmlns="http://www.w3.org/2000/svg">
<g clip-path="url(#clip0_202_1359)">
<path d="M16.0001 0C7.16346 0 0 7.16342 0 16C0 24.8366 7.16346 32 16.0001 32C24.8367 32 32.0002 24.8366 32.0002 16C32.0002 7.16342 24.8367 0 16.0001 0ZM24.2193 11.7852C24.2278 11.967 24.2316 12.1497 24.2316 12.3333C24.2316 17.9369 19.9658 24.399 12.1656 24.399C9.77043 24.399 7.54207 23.697 5.66525 22.4942C5.99715 22.5334 6.33463 22.553 6.6768 22.553C8.66365 22.553 10.4921 21.8752 11.9438 20.7377C10.0874 20.7033 8.52205 19.4771 7.982 17.7924C8.2403 17.8418 8.50618 17.8689 8.77927 17.8689C9.16617 17.8689 9.54099 17.8167 9.89724 17.7197C7.95693 17.3308 6.49498 15.6163 6.49498 13.5622C6.49498 13.5437 6.49498 13.526 6.49589 13.5081C7.0675 13.8259 7.721 14.0171 8.41653 14.0386C7.278 13.2789 6.52944 11.98 6.52944 10.5088C6.52944 9.73214 6.73921 9.00379 7.10375 8.37735C9.19503 10.9434 12.3204 12.631 15.8448 12.8081C15.7721 12.4977 15.7348 12.1739 15.7348 11.8411C15.7348 9.49982 17.6339 7.60065 19.9761 7.60065C21.1956 7.60065 22.2977 8.11616 23.0715 8.94048C24.0375 8.75018 24.9446 8.39682 25.7642 7.91108C25.4471 8.90133 24.7748 9.73196 23.8995 10.257C24.7572 10.1544 25.575 9.92695 26.3347 9.58928C25.7671 10.4398 25.0474 11.1867 24.2193 11.7852Z" fill="white"/>
</g>
<defs>
<clipPath id="clip0_202_1359">
<rect width="32" height="32" fill="white"/>
</clipPath>
</defs>
</svg>
