<svg width="32" height="32" viewBox="0 0 32 32" fill="none" xmlns="http://www.w3.org/2000/svg">
<path fill-rule="evenodd" clip-rule="evenodd" d="M16 32C7.16344 32 0 24.8366 0 16C0 7.16344 7.16344 0 16 0C24.8366 0 32 7.16344 32 16C32 24.8366 24.8366 32 16 32ZM27.7034 18.6633C27.2513 18.7652 26.7788 18.8652 26.2874 18.9622C25.4815 19.1212 24.6643 19.2646 23.8377 19.3905C23.5884 21.9385 23.058 24.2738 22.2864 26.2236C24.9887 24.5584 26.9808 21.8519 27.7034 18.6633ZM23.9936 15.3149C23.9257 11.7182 23.3241 8.39876 22.2864 5.7764C25.3126 7.64118 27.4483 10.8121 27.9076 14.5033C27.1831 14.6855 26.3813 14.8665 25.513 15.0378C25.0111 15.1369 24.5043 15.2294 23.9936 15.3149ZM19.9995 15.8236C18.6769 15.9384 17.3401 16 16 16C14.6586 16 13.3221 15.9383 12.0005 15.8233C12.02 12.3841 12.6081 9.19261 13.5956 6.88834C14.4332 4.93408 15.3797 4 16 4C16.6203 4 17.5668 4.93408 18.4044 6.88834C19.3919 9.19267 19.98 12.3843 19.9995 15.8236ZM8.16216 19.3889C7.34101 19.2633 6.52895 19.1204 5.72783 18.962C5.23061 18.8637 4.75313 18.7623 4.29561 18.659C5.01734 21.8494 7.01009 24.5577 9.71364 26.2236C8.94188 24.2733 8.41133 21.9375 8.16216 19.3889ZM8.00648 15.3128C8.07453 11.7169 8.67611 8.39826 9.71364 5.7764C6.69012 7.63948 4.5556 10.8063 4.0937 14.4931C4.90463 14.6887 5.80359 14.8995 6.50382 15.038C7.00039 15.1362 7.50148 15.228 8.00648 15.3128ZM19.7533 19.8568C18.5125 19.9503 17.2592 20 16 20C14.7397 20 13.4867 19.9502 12.2466 19.8566C12.5093 21.854 12.9731 23.6591 13.5956 25.1117C14.4332 27.0659 15.3797 28 16 28C16.6203 28 17.5668 27.0659 18.4044 25.1117C19.0268 23.6592 19.4906 21.8542 19.7533 19.8568Z" fill="white"/>
</svg>
