<svg width="32" height="32" viewBox="0 0 32 32" fill="none" xmlns="http://www.w3.org/2000/svg">
<g clip-path="url(#clip0_202_1441)">
<path fill-rule="evenodd" clip-rule="evenodd" d="M0 16C0 24.8352 7.1648 32 16 32C24.8352 32 32 24.8352 32 16C32 7.1648 24.8352 0 16 0C7.1648 0 0 7.1648 0 16ZM24.304 8.96C25.2192 9.2064 25.9392 9.9296 26.1824 10.8512C26.624 12.5184 26.624 16 26.624 16C26.624 16 26.624 19.4816 26.1792 21.1488C25.936 22.0704 25.216 22.7936 24.3008 23.04C22.6464 23.488 16 23.488 16 23.488C16 23.488 9.3568 23.488 7.6992 23.04C6.784 22.7936 6.064 22.0704 5.8208 21.1488C5.376 19.4816 5.376 16 5.376 16C5.376 16 5.376 12.5184 5.824 10.8512C6.0672 9.9296 6.7872 9.2064 7.7024 8.96C9.3568 8.512 16.0032 8.512 16.0032 8.512C16.0032 8.512 22.6464 8.512 24.304 8.96ZM19.3792 16L13.8272 12.8416V19.1584L19.3792 16Z" fill="white"/>
</g>
<defs>
<clipPath id="clip0_202_1441">
<rect width="32" height="32" fill="white"/>
</clipPath>
</defs>
</svg>
